<?xml version="1.0" encoding="utf-8"?>
<!-- Generator: Adobe Illustrator 24.0.2, SVG Export Plug-In . SVG Version: 6.00 Build 0)  -->
<svg version="1.1" id="Capa_1" xmlns="http://www.w3.org/2000/svg" xmlns:xlink="http://www.w3.org/1999/xlink" x="0px" y="0px"
	 viewBox="0 0 1333 1000.1" style="enable-background:new 0 0 1333 1000.1;" xml:space="preserve">
<g transform="translate(0.000000,1000.000000) scale(0.100000,-0.100000)">
	<path d="M841.4,9955.7c-15-63-14-121,4-136c8-7,48-16,90-21c41-4,92-13,112-18c107-30,134,6,118,153l-7,66h-153h-153L841.4,9955.7z
		"/>
	<path d="M1680.4,9977.7c0-13-11-139-24-280c-19-196-29-268-45-302c-11-25-17-47-13-50c4-2,36,2,72,10c36,7,102,14,147,14
		c50,0,85,4,89,11s8,42,9,78c3,104,17,241,25,241c4,0,11-52,15-115c7-119,17-145,54-145c10,0,28,11,40,24c27,29,31,88,8,114
		c-10,12-20,73-31,202c-10,102-20,193-22,203c-5,15-22,17-165,17C1681.4,9999.7,1680.4,9999.7,1680.4,9977.7z"/>
	<path d="M2490.4,9993.7c0-3,5-14,11-25c9-17,2-29-52-86c-112-120-218-298-289-485c-20-54-40-95-43-91c-4,3-7,25-7,48
		c0,47-13,65-50,65c-62,0-90-23-70-58c10-17,80-564,125-982c14-129,28-241,30-247c6-18,50-16,65,2c7,8,23,15,35,15c50,0,50,14,1,272
		c-52,274-103,611-112,738c-6,80-4,91,31,190c66,189,174,377,298,521c23,27,45,49,50,49c4,0,7-12,7-26c0-20,18-44,71-95
		c38-37,85-74,102-82c18-9,81-45,140-81c60-36,113-66,118-68c4-2,78-248,164-548c113-397,160-549,175-561c10-9,17-19,14-22
		c-12-11-62-1021-66-1337l-3-175l29-3c43-5,74,16,90,62c19,52,48,568,72,1293c6,188,5,203-11,210c-10,3-31,1-46-4c-39-15-38,2,2,43
		l32,33l-61,158c-100,261-242,714-242,774c0,14,6,15,45,6c25-6,48-8,51-4c4,3-24,39-61,79c-69,74-77,89-88,145l-6,32l42-16
		c65-24,241-28,382-8c175,24,291,34,331,28l34-6v-73c0-65,2-73,21-79c33-11,190-8,220,3c24,10,26,16,32,94c4,45,7,134,7,196v112
		h-140h-140v-115c0-63-1-115-2-115c-2,0-35,11-74,24c-40,14-118,34-175,47c-57,12-106,23-108,25c-3,3,13,10,68,30c8,2,12,7,9,9
		c-3,3-85,26-183,50l-179,45h-217c-207,0-220-1-283-25c-37-14-75-25-86-25c-27,0-35,19-14,35c27,21-5,20-34-1c-20-14-22-14-22,0
		c0,9-9,16-20,16S2490.4,9996.7,2490.4,9993.7z M2580.4,9933.7l25-15l-25,5c-14,3-31,6-38,6s-10,5-7,10
		C2543.4,9952.7,2550.4,9951.7,2580.4,9933.7z M2963.4,9839.7c44,0,66-4,62-10s-21-8-41-4s-47,1-65-6c-28-12-33-11-52,10l-22,23
		l25-7C2884.4,9842.7,2926.4,9839.7,2963.4,9839.7z"/>
	<path d="M2633.4,9992.7c9-2,23-2,30,0c6,3-1,5-18,5C2629.4,9997.7,2623.4,9995.7,2633.4,9992.7z"/>
	<path d="M5062.5,9866.7c-27-152-81-384-118-506c-14-46-23-89-21-95c8-20,103-65,118-55c10,6,13,42,14,146c1,117,5,154,29,243
		c15,58,29,106,31,108c1,2,17-16,34-40c24-33,31-52,31-88c0-99,38-185,167-382c47-72,96-155,110-185c13-31,25-54,27-52
		c9,11-17,165-53,303c-61,237-97,302-192,350c-30,14-65,43-86,70l-35,45l26,115c35,157,36,156-16,156h-43L5062.5,9866.7z"/>
	<path d="M5725.5,9972.7c21-43,15-734-6-783c-22-49-15-60,39-60c52,0,129-32,177-73l31-25l-4,181c-2,100,0,197,5,216
		c8,32,13,21,57-140c75-274,76-277,92-283c8-3,29,1,46,10s39,14,49,11s26,1,36,8c16,12,13,21-35,123c-61,128-112,267-182,496
		c-44,145-50,173-50,255v91h-134h-134L5725.5,9972.7z"/>
	<path d="M6340.5,9991.7c0-18,184-203,253-255c131-98,280-167,362-167c20,0,45-4,55-10c26-14,93-124,125-205c64-162,165-345,226-410
		l28-30l-73-259c-41-142-72-265-69-272c3-8,12-14,19-14c8,0,25-7,38-15c28-19,55-10,60,19c3,11,7,59,10,106s13,125,22,173l16,88
		l57,38c31,20,86,54,122,74c61,34,69,35,105,25c100-27,263,12,516,126c80,36,181,76,223,88c63,18,73,24,54,29c-66,19-472-6-591-36
		c-104-26-202-92-227-153c-8-18-32-38-74-59c-34-18-86-49-116-68c-29-20-55-34-58-32c-7,7,86,304,191,608c58,168,106,313,106,321
		c0,44-61,49-92,8c-10-14-57-161-104-325c-117-414-124-435-133-435c-31,0-180,269-245,443l-36,97l24,48c18,36,33,50,60,60
		c63,23,151,125,261,304c30,48,55,90,55,93s-49,5-108,5c-100,0-110-2-129-22c-36-41-66-90-90-147c-24-55-24-55-19-16
		c3,22,8,73,12,113l6,72h-126h-126v-93c0-131,19-190,81-249c35-35,52-60,58-90c6-23,9-44,7-45c-3-3-46,56-88,121
		c-39,60-98,108-308,247l-165,109h-87C6379.5,9999.7,6340.5,9995.7,6340.5,9991.7z M7157.5,9690.7c-5-59-36-151-52-151
		c-2,0-9,17-14,37c-9,32-8,40,8,58c10,11,27,44,37,73c10,28,21,52,23,52S7160.5,9728.7,7157.5,9690.7z"/>
	<path d="M7706.5,9906.7c-25-50-46-102-46-114c0-19,17-33,41-33c5,0,36,54,69,120l60,120h-39h-39L7706.5,9906.7z"/>
	<path d="M8670.5,9976.7c-30-12-55-27-55-32c1-6,9-44,18-85c27-115,187-1168,187-1227c0-29,3-53,8-53c18,1,272,67,278,72
		c3,3-2,21-12,39c-15,29-105,589-185,1147l-23,162h-81C8746.5,9998.7,8711.5,9993.7,8670.5,9976.7z"/>
	<path d="M10174.5,9942.7c4-32,31-218,61-413c70-462,72-477,63-530c-18-97,17-125,157-124c103,0,166,15,195,46c25,27,25,59,1,123
		c-11,27-47,228-81,445s-66,421-72,453l-10,57h-160h-161L10174.5,9942.7z"/>
	<path d="M10970.5,9990.7c0-25,58-179,111-294c72-158,100-207,146-258c33-37,37-48,59-181c14-78,23-146,21-152c-4-12-50,119-71,203
		c-9,35-28,85-42,112c-49,89-202,245-399,408c-127,104-133,102-86-27c35-98,72-160,202-347c116-168,215-286,275-328
		c52-37,63-66,95-252c19-105,22-183,29-620c9-563,19-680,57-698c40-18,47,0,33,90c-7,45-15,289-20,578c-6,380-12,528-25,615
		c-9,63-18,117-21,121c-11,18,39,181,71,235c81,133,123,389,110,662l-7,142h-48h-48l-11-62c-23-131-51-328-66-467
		c-14-122-15-155-4-225c15-93,16-193,1-208c-6-6-11,24-14,84c-3,51-13,132-23,181c-17,83-17,90,0,143c12,39,16,72,11,108
		c-7,67-106,343-143,401l-28,45h-82C11007.5,9999.7,10970.5,9995.7,10970.5,9990.7z"/>
	<path d="M11723.5,9957.7c4-24,17-117,31-208c19-132,22-176,14-218c-17-99,29-128,192-120c109,5,155,24,178,71c11,23,10,33-8,74
		c-17,37-80,382-80,435c0,4-75,8-166,8h-167L11723.5,9957.7z"/>
	<path d="M842.4,9397.7c-2-282-6-364-18-406c-15-49-14-55,1-72c22-25,98-44,172-45c51,0,66,4,85,22c20,20,21,27,13,70
		c-6,28-8,192-5,393c3,190,4,347,3,349c-3,4-210,41-233,41C847.4,9749.7,844.4,9704.7,842.4,9397.7z"/>
	<path d="M9680.5,9652.7c0-16,161-285,253-423c97-145,181-241,227-260c24-10,70-67,70-87c0-3-18,11-39,30s-75,60-119,91
		c-60,43-81,63-85,85c-4,17-24,44-49,66c-61,52-253,134-358,152c-47,8-128,27-181,43c-92,27-209,48-209,37c0-10,227-156,306-196
		c118-61,335-132,419-138c63-5,77-10,140-54c39-27,84-60,100-73l30-25l-31,8c-16,5-66,29-110,54c-109,63-144,71-319,70
		c-154,0-424-20-438-33c-14-12,116-69,204-89c139-33,367-62,489-64c103-2,119,1,153,21c35,20,40,21,67,7c63-32,152-201,174-331
		c24-133,25-129-33-99c-27,13-78,32-113,42c-34,9-79,29-98,44c-109,84-177,91-312,36c-48-20-163-57-257-82c-175-46-286-83-278-92
		c3-2,58,1,124,8c65,7,224,12,353,11s251,3,270,8s57,23,84,40l49,31l71-21c78-24,166-66,166-79c0-4,18-127,40-272s40-271,40-281
		c0-9-73-90-161-180c-242-244-300-330-344-501c-21-82-86-238-70-167c3,14,15,104,26,200c16,130,19,204,15,290c-7,137-26,307-36,335
		c-6,17-9,14-19-20c-6-22-18-83-27-135c-8-52-29-153-45-225c-25-110-29-155-32-290l-2-160l34-68l33-69l-48-104c-26-57-48-104-48-104
		c-1,0,1,98,2,217c4,207-11,548-27,623c-6,33-8,30-29-50c-110-425-121-693-34-865l30-60l-32-80l-31-80l-6,85c-7,109-33,184-134,400
		c-46,96-89,195-96,220c-41,147-34-36,12-314c43-253,84-350,169-398c45-26,46-29,24-89c-9-24-33-111-54-192c-38-152-50-163-50-50
		c0,54-14,78-25,44c-16-53-153-141-217-141c-25,0-23-34,3-77c16-26,30-95,60-291c21-141,50-322,64-402c36-208,38-197-42-257
		c-38-27-129-86-202-129c-140-82-244-168-290-239l-25-40l-9,52c-8,49-7,54,26,100c166,232,211,531,158,1043c-29,276-33,303-41,293
		c-14-15-59-166-80-263c-11-52-25-167-30-255c-6-88-22-232-36-321c-16-110-24-205-25-305v-144l-29,110c-16,61-33,122-39,137
		c-8,23-6,35,17,75c25,44,27,57,26,153c-1,168-36,269-193,568c-82,155-207,394-235,450c-10,19-19,32-22,30c-2-3-11-54-20-114
		c-22-147-22-396-1-491c36-157,78-232,270-481c128-167,134-177,155-257c12-45,22-86,22-90s-19,19-43,52c-61,82-142,152-292,250
		c-71,48-166,110-210,139s-108,77-142,108c-33,31-63,56-66,56c-11,0,16-77,46-135c38-70,165-207,327-349c144-127,216-182,333-256
		c84-52,92-61,99-96c4-22,10-49,13-62c4-16-12-5-58,42c-81,81-153,120-384,212c-102,41-208,88-236,105c-27,16-51,28-54,25
		s5-22,18-43c155-253,440-507,617-552c128-33,119-28,124-69c18-141-50-719-147-1262c-13-74-40-227-60-340s-39-212-42-220
		c-3-9-22,18-50,75l-44,90l5-90c3-50,15-134,26-189c21-104,24-143,13-172c-8-22-93,514-97,613c-2,53-7,78-21,93c-48,53-215-8-215-79
		c0-13,9-52,20-85c16-50,57-300,196-1190c4-22,6-57,6-80c-1-22,1-43,4-47c2-4,34,4,71,17c38,13,85,24,106,24c41,0,42,2,27,77
		c-5,26-24,132-41,235c-26,158-29,196-22,250c7,46,12,58,17,43c38-103,65-153,104-196c44-49,106-89,138-89c11,0,14-5,9-17
		c-24-60-70-203-95-297c-30-112-40-136-40-96c0,22-2,22-60,16c-33-4-80-13-105-21c-42-12-46-12-56,7c-6,12-18,18-32,16
		c-18-3-26-19-50-108c-55-205-156-407-357-713l-97-149l-38,53c-20,29-56,73-79,98c-24,25-49,62-56,81c-45,116-100,153-255,175
		c-61,8-173,33-250,55s-165,44-195,50s-65,13-77,16c-13,2-23,0-23-6c0-5,5-10,11-10c25,0,362-173,458-235c147-95,180-109,276-110
		l80-1l55-66c94-111,93-97,7-234c-76-122-97-158-97-168c0-3,16-6,35-6c31,0,39,5,63,46c15,25,90,143,168,262
		c249,384,351,570,405,740c27,86,33,79,49-61c6-51,36-258,66-462c41-270,54-385,50-427c-3-32-2-58,2-58s30,11,57,25
		c28,13,82,31,120,40c99,22,100,23,86,81c-6,27-29,175-52,329c-22,154-52,363-67,465c-28,182-28,186-12,260c36,164,142,486,169,513
		c10,10,47-78,96-233c74-230,149-345,296-455c55-41,102-75,103-75c6,0-15,117-35,200c-38,155-110,304-202,418
		c-70,86-185,172-232,172c-8,0-15,2-15,4s19,43,41,91c33,68,45,85,58,79c120-52,255-46,714,32c86,15,160,25,163,21c3-3,8-42,11-86
		c3-45,9-81,13-81s33,9,66,20c32,11,88,24,124,28c74,8,72,3,51,121c-9,49-9,66,0,71c8,6,8,9-2,12c-18,6-91,440-75,451c8,5,8,9-2,15
		c-7,5-26,101-47,243c-20,129-42,272-50,319c-18,111-14,204,12,255c43,84,38,93-17,32c-47-52-55-57-94-57c-97,0-206-56-206-106
		c0-13,7-39,16-58l17-34l-44-38c-242-213-356-372-392-544c-11-52-79-200-91-200c-2,0,3,22,10,49c27,107,47,341,41,501
		c-5,147-39,395-57,413c-11,12-47-129-65-254c-9-57-24-133-35-169c-34-117-39-153-41-320c-2-179,0-188,56-276l36-56l-62-124
		c-35-68-64-123-65-121c-1,1,2,27,8,57c15,88-6,529-38,775c-14,113-19,134-28,124c-7-8-76-266-97-364c-27-126-37-364-19-472
		c16-99,33-146,75-208l35-50l-40-90c-38-87-40-89-40-50c-1,114-48,240-161,432l-61,102l46,263c76,441,111,684,141,988
		c8,85,23,216,32,290c24,208,17,545-14,626c-9,24,114,63,252,79c33,4,78,15,100,24c55,24,138,103,210,199c33,45,65,81,71,82
		c5,0,28,13,50,29c50,36,80,43,128,30c21-6,40-8,43-5s-2,44-11,92c-11,60-13,91-6,99c7,9,6,14-3,18c-9,3-20,45-31,114
		c-10,59-40,225-68,368c-37,196-48,272-43,310c9,72,78,335,116,439c31,86,32,88,45,63c8-14,29-85,48-159c64-254,116-354,239-468
		c53-49,67-58,67-42c0,48-41,254-66,327c-55,168-170,336-255,374l-37,17l30,74c17,41,32,76,33,78c2,2,31-7,66-19c54-18,78-20,154-16
		c146,10,561,86,665,123c26,9-6,20-155,50c-121,25-161,29-300,28c-147,0-167-3-243-28c-56-18-96-39-123-63c-21-19-39-32-39-28
		s12,33,26,65l25,57l160,31c223,44,305,82,459,212c46,40,101,80,121,91l38,19l10-33c6-17,22-117,36-222c14-104,44-300,66-435
		c39-235,41-266,23-362l-7-38h82c44,0,81-4,81-8c0-5-7-28-15-53c-13-36-23-47-55-61c-34-14-40-21-40-47c0-17,8-46,17-66
		c17-35,16-36-46-256c-65-229-67-249-20-249c10,0,21-4,24-10c8-12,42-13,49-1c3,4,10,60,16,123s14,128,19,144l8,29l6-30
		c8-34,24-143,98-635c43-289,51-371,53-504l2-159l-44-53c-24-30-76-77-115-106c-94-70-140-108-216-181l-64-62l6,55
		c42,396,101,767,172,1086c25,111,45,208,45,217c0,22-67,69-89,62s-16,23-91-530c-29-209-54-387-57-395c-2-8-18,19-35,60
		c-25,59-32,91-33,151c-2,120-30,167-189,322c-115,113-288,257-308,257c-4,0,12-28,36-62c24-35,77-124,116-198
		c121-224,176-296,282-363c50-33,55-40,90-128l36-94l-19-130c-11-71-33-197-49-280c-34-175-36-252-12-460c13-120,17-238,17-590
		c-1-467-3-509-66-1140c-38-387-68-741-70-830c-1-64-2-67-10-30c-4,22-38,245-74,495c-37,250-69,470-72,488c-5,33-6,33-52,27
		c-85-12-156-27-208-47l-52-19l19-43c20-48,36-121,45-211c4-33,32-226,62-430c42-284,53-385,48-433c-3-34-4-62-1-62c2,0,28,11,58,25
		c29,13,95,34,146,46c52,12,96,28,99,35c3,8,0,27-5,44c-11,30-10,30,32,41l43,11l17,216c9,119,35,398,56,619c63,647,73,832,67,1268
		c-3,252-10,426-21,515c-22,189-24,199-53,226c-22,20-23,25-9,30c10,4,25-1,37-12c29-26,39-6,39,82v71l78,74c78,75,212,183,290,234
		c41,27,45,28,95,16c55-12,92-46,67-61c-10-6-8-20,8-61c12-32,41-189,72-389c28-184,71-463,96-620c24-157,47-322,50-367l7-82l54-7
		c62-7,224,3,261,17c19,7,23,14,18,32c-20,65-221,1305-214,1312c2,2,78-17,168-42c148-41,177-46,277-47c61,0,115,2,119,7
		c4,4-1,14-12,22c-23,18-22,18,51,4c77-14,149-51,203-102c23-23,42-37,43-32c0,6,0,78-1,160c-1,83,8,276,19,430
		c28,388,45,734,37,742c-4,4-21,1-39-5c-54-20-117-15-169,13c-57,30-108,32-133,5c-19-20-17-36,8-105c12-33,14-65,7-180
		c-5-77-9-163-10-191v-51l-107-17c-60-9-165-16-235-16c-114,0-138-3-220-29c-146-47-130-59-154,113l-21,149l34,106
		c48,150,105,369,101,388c-2,9-37-30-88-97c-69-92-86-109-92-94c-18,44-91,575-92,670c-1,87-4,105-21,124c-26,30-116,87-149,96
		c-14,3-26,10-26,14c0,18,23,70,31,70c12,0,75-34,107-56c21-16,22-15,22,4c0,11-5,33-10,47c-6,15-19,74-29,133l-19,107l66,198
		c65,193,66,199,48,213c-11,8-26,14-33,14c-27,0-62-49-78-106c-9-33-19-66-22-74s-19,82-34,200c-57,442-76,570-82,576
		c-3,3-30-5-58-20c-62-31-80-32-165-9c-59,16-68,16-92,2c-30-16-41-61-21-85c7-9,8-18,3-23c-5-4-106-24-224-44
		c-270-45-315-61-401-147c-36-36-73-76-82-90l-17-25l9,25c5,14,32,73,60,133c42,90,54,107,73,107c59,1,181,88,252,180
		c36,47,147,266,206,405c19,44,37,84,41,88c13,16,39-207,34-283c-8-95-1-106,53-90c36,11,48,10,116-14c91-31,121-32,164-6
		c38,23,38,23,13,177c-11,65-56,359-101,653s-86,552-91,573c-8,31-14,37-27,31c-62-26-129-36-175-25c-98,22-142,9-130-40
		c8-28-3-23-20,9c-121,232-124,238-129,299c-11,121-138,311-307,461C9778.5,9586.7,9680.5,9663.7,9680.5,9652.7z M11997.5,4170.7
		c-5-184-8-214-26-250c-12-22-21-47-21-55c0-9-42,10-122,57c-156,89-346,180-422,202c-59,17-106,17-267-1c-36-4-71-2-95,6l-38,13
		l38,19c34,17,42,18,70,6c55-23,222-15,391,20c161,33,282,76,410,146c44,24,82,44,84,45
		C12001.5,4378.7,12000.5,4285.7,11997.5,4170.7z M11050.5,4209.7c17-10,16-12-27-34c-37-19-40-15-15,19
		C11027.5,4222.7,11029.5,4222.7,11050.5,4209.7z M9778.5,2701.7c25-162,27-182,13-186c-9-3-63-12-121-21c-278-44-400-101-506-238
		c-20-26-38-46-40-44c-4,4,131,264,147,283c6,8,28,14,48,14c100,1,290,152,381,303c25,41,46,74,47,73
		C9749.5,2884.7,9763.5,2801.7,9778.5,2701.7z M9835.5,2347.7c3-18,11-72,19-121l13-87l-96,7c-137,11-324,8-411-6
		c-120-21-253-68-300-108c-23-20-43-34-44-32c-2,2,13,35,33,73l36,70l185,33c102,19,214,42,250,53c74,22,208,86,260,124
		C9825.5,2385.7,9828.5,2385.7,9835.5,2347.7z"/>
	<path d="M4070.4,9554.7c-46-48-125-85-195-92c-31-3-59-12-62-18c-2-7,3-30,13-51c15-35,17-89,19-479c3-414,2-443-16-484
		c-23-53-18-75,20-91c25-10,35-8,72,11c71,36,96,40,145,23c24-8,49-12,54-9c6,4,8,69,5,168c-23,767-25,908-17,972c5,39,7,73,3,78
		C4107.5,9586.7,4089.4,9573.7,4070.4,9554.7z"/>
	<path d="M12888.5,9557.7c-9-23-35-203-43-300c-4-43-10-78-13-78c-13,0-211,170-251,216c-23,26-44,44-47,41c-8-8,159-313,251-457
		l42-66l6-169c3-94,12-196,20-227c17-69,34-64-163-43c-74,8-144,15-154,15c-28,0-9-15,35-29c20-6,84-43,142-81
		c108-71,238-141,304-164c29-10,39-21,54-61c10-27,17-50,16-51c-1-2-43-8-92-14c-208-25-543-98-509-111c54-19,308-55,624-87l74-7
		l24-69c34-100,60-225,72-351c11-122,13-488,2-549l-7-39l-28,36c-18,24-27,48-27,74c-1,98-48,204-168,377c-42,61-94,143-115,181
		l-38,70l6-60c9-88,91-388,125-455c35-70,81-117,137-142c23-10,57-38,76-61l34-42l7-150c7-167,24-339,37-370c4-11,8,267,8,618
		c1,718,7,658-79,844l-40,86l60-6l60-5v108c0,89-3,109-16,114c-9,3-58,6-109,6h-93l-16,46l-15,46l27-7c41-10,185-35,205-35
		c15,0,17,12,17,110v111l-32,14c-18,8-68,22-110,31l-78,17v75v74l28-18c55-38,136-74,163-74h29v103v104l-52,74
		c-55,78-128,156-216,230l-53,44l-39,143c-22,79-48,198-58,265C12902.5,9520.7,12891.5,9566.7,12888.5,9557.7z"/>
	<path d="M12198.5,9357.7c-27-40-48-65-48-55c0,21-17,22-63,2c-43-18-106-19-176-4c-62,13-91,1-91-39c0-15,16-128,36-252l37-225
		l-27-80c-30-92-35-193-12-238c13-24,13-38-5-125c-10-53-22-140-26-192l-7-95l-13,55c-11,47-10,64,3,120c13,50,15,92,11,180
		c-9,165-71,575-124,820c-21,95-27,80-48-128c-39-387-2-722,96-877c18-28,40-84,51-130l19-80l-27-85c-14-47-50-138-79-203
		c-60-132-194-381-202-373c-3,2-15,44-27,93c-19,76-25,88-45,91c-32,5-61-25-61-62c0-17,15-78,34-136l33-105l-49-90
		c-81-150-153-295-188-382c-28-68-31-84-20-97c27-34,45-18,84,77c42,100,171,354,190,375c10,11,26-31,81-210
		c156-512,225-732,233-740c12-12,103,3,109,18c3,7-26,76-65,152c-82,165-147,357-228,677l-58,230l78,137c154,274,257,517,287,681
		c11,59,16,68,50,91c28,18,41,21,46,13c4-7,8-67,8-134c0-126,10-162,37-135c18,18,76,14,136-8c72-28,133-26,168,4l28,23l-48,310
		l-48,310l52,79c28,43,67,111,85,149c33,68,69,185,57,185c-7,0-90-65-166-129c-33-28-61-50-62-48c-1,1-12,68-24,149l-22,147l32,159
		C12261.5,9435.7,12259.5,9450.7,12198.5,9357.7z M11922.5,8386.7c-11-34-25-84-32-112c-6-27-20-58-31-68c-20-19-20-19-14,20
		c29,174,39,209,64,236s26,28,29,8C11940.5,8458.7,11933.5,8420.7,11922.5,8386.7z"/>
	<path d="M97.4,9340.7c-17-81-29-312-24-445c5-153,47-417,82-516c19-54,15-50-41,40c-24,40-49,93-56,119c-6,25-21,69-34,96l-22,50
		l-1-103l-1-102l24,4c20,4,30-4,52-37c33-50,164-267,164-271c0-2-35,31-77,74c-43,42-97,87-120,99l-43,21v-109c0-127-17-113,158-132
		l113-12l23-36c12-20,33-54,46-76l25-40l-30,19c-74,49-119,68-201,86c-144,32-134,39-134-91v-111l123,4c114,5,165,15,247,52
		c11,5,27-16,63-83c26-48,47-91,47-95c0-3-8-6-18-6c-57,0-203-142-277-268c-72-123-115-249-145-431l-18-106l-2,235
		c-1,129-6,264-10,300s-8-209-8-543c-2-543,0-608,14-614c32-12,37,12,25,119c-6,57-14,177-18,268l-6,165l55,50c31,28,77,68,103,89
		c107,89,190,262,255,533c31,128,56,191,70,177c14-15,107-228,149-342c77-211,159-570,140-620c-5-13-7-27-4-31c2-5,31-11,63-13
		c65-6,126-33,163-72c13-14,26-26,29-26s5,96,5,212c0,117,4,345,9,507l9,294l-24-8c-58-18-90-17-143,6c-46,19-60,20-81,11
		c-28-13-32-37-10-78c12-24,14-79,10-339c-3-170-5-326-6-345c0-21-8,2-19,60c-36,194-102,412-181,594c-23,56-38,101-32,103
		c5,2,34,18,63,36c63,38,119,114,146,197c10,30,22,59,26,65c15,17,8-56-8-86c-8-17-14-45-12-62c3-29,6-32,34-29c21,2,54-8,93-27
		c69-35,103-39,129-13c16,16,19,39,20,203c1,101,5,340,8,531l7,348l-59-6c-41-4-72-1-103,10c-61,22-87,21-95-6c-3-13-6-101-6-196
		v-173l-100-194c-120-233-159-342-167-467l-6-90l-43,84c-24,46-44,87-44,92s13,30,29,55c44,69,62,143,68,276c7,144-6,253-52,430
		c-37,143-123,395-135,395c-14,0-23-228-22-537c1-265,7-366,28-463c3-14-29,33-71,103l-77,129l44,85c49,97,50,107,29,333
		c-9,95-20,149-47,227c-19,57-46,154-59,216c-27,120-71,264-85,272C106.4,9366.7,100.4,9356.7,97.4,9340.7z"/>
	<path d="M4849.5,9152.7c-69-71-534-675-647-841c-57-83-66-92-73-74c-19,52-81,52-162,0c-36-23-61-32-88-31c-31,2-38-2-43-21
		c-3-13,1-45,9-72c10-33,15-95,15-192v-143l-108-187c-60-103-175-303-258-446c-82-142-156-261-164-264s-25-14-38-26
		c-18-16-25-18-31-7c-17,27-54,7-80-41c-25-46-41-54-41-19c0,10-8,43-19,73c-12,34-19,82-19,129c0,117-29,170-126,231
		c-71,45-148,104-236,183c-92,82-220,179-226,172c-3-2,19-33,49-68c102-122,197-251,267-364c78-126,149-198,212-217
		c45-13,57-33,84-137l14-58l-70-144c-72-146-121-288-184-526c-24-90-60-186-110-297c-41-91-82-191-92-223c-9-32-19-66-23-77
		c-4-10-15,66-24,170c-40,430-127,1059-150,1081c-12,12-23,12-73-2c-78-22-87-31-74-75c6-19,15-62,20-95c15-98,101-1125,95-1136
		c-4-5-3-18,0-29c8-25,36-25,130,0c39,10,72,14,73,9c2-5,10-9,18-9s23-6,34-12c14-9,25-10,36-3c28,18,236,525,265,645
		c7,30,14,57,16,59c4,6,105-63,215-146c173-132,277-182,413-198c56-7,65-12,138-77l77-70v-107c0-58-5-123-11-145c-6-21-7-42-2-46
		c4-5,37-2,73,6c36,7,99,14,142,14h76l-4,222l-5,223l47-60c97-124,314-483,314-520c0-6-19-29-41-50c-90-87-182-350-204-590
		c-7-67-9-72-51-108l-44-38v411c0,473,13,425-115,424c-59,0-96-6-138-23l-59-23l7-47c7-47,23-195,21-197c-1-1-41-6-91-12
		c-80-9-190-26-336-51c-31-5-61-3-90,6c-24,7-79,13-121,13c-179,0-382-72-640-227c-65-39-118-68-118-64s12,72,26,151
		c36,207,78,386,113,486c16,47,27,93,24,100c-7,20-39,17-114-7c-70-24-99-43-99-68c0-18-188-1063-225-1251c-14-69-26-161-27-204
		c-3-67-7-83-25-102c-31-32-29-71,9-180l32-92l-47-188c-72-287-91-383-141-729c-36-240-58-323-104-376c-25-30-25-33-10-59
		c15-27,15-28-4-33s-20-11-13-143l8-137l-72,7c-39,4-71,5-71,2s30-26,66-52l67-48l-6-87c-7-113-39-359-46-359c-3,0-16,50-28,112
		c-23,113-32,130-67,126c-39-6-42-31-18-150c13-62,34-174,48-248l26-135l-22-164c-25-183-24-185,43-174c29,4,37,2,37-10
		c0-11-16-16-63-21l-63-7l4-93c4-77-8-232-33-424l-4-32h160c183,0,166-14,149,119c-7,55-6,116,5,230c20,213,22,198-25,206
		c-25,4-40,12-40,21c0,8,7,14,15,14c25,0,33,31,34,135c2,97,15,314,27,425c11,113,46,395,49,398c2,2,41-16,86-39
		c135-67,211-90,329-97l105-7l3-35c5-67,44-317,78-501l34-186l-60-119c-74-149-111-273-112-374c-1-106,5-190,14-190c4,0,8,5,8,11
		s20,34,45,61c49,55,100,153,135,262c25,75,30,74,50-13c12-53,12-55-11-73c-89-71-149-150-149-199c0-12-8-28-17-35
		c-16-12-9-13,45-14c46,0,82,7,128,26c36,14,68,24,71,21c9-9-7-27-25-27c-9,0-24-5-32-10c-10-6,49-9,175-9c194,1,206,10,38,26
		c-74,8-77,9-84,37c-5,17-7,30-6,31c49,20,294,181,361,236c104,86,346,327,346,345s-96-20-269-109c-85-43-191-92-236-108
		c-77-28-140-63-219-124c-42-32-37-39-70,108l-24,109l24,81c37,123,85,318,82,329c-2,6-34-33-72-86c-37-53-71-96-75-96
		c-9,0-104,548-97,557c1,2,18-2,37-7c100-29,507,15,683,74c70,24,151,64,143,72c-11,12-307,45-413,47c-68,1-124,4-124,7s22,19,48,36
		c47,31,424,366,491,438c19,20,30,36,25,36c-17,0-251-103-374-165c-257-128-304-165-406-321c-53-81-81-114-94-114c-11,0-20,6-20,14
		c0,25,12,46,25,46c22,0,91,87,133,168c58,112,157,354,186,454c14,48,34,134,45,190c23,118,55,382,48,401c-7,20-95-126-163-269
		c-35-73-93-180-129-236c-55-89-74-131-126-289c-69-209-80-298-46-374c15-36,16-45,4-85l-13-45l-18,33c-9,18-14,37-10,43s6,50,5,97
		c-1,74-7,104-51,234c-87,257-261,670-276,655c-10-9,15-388,31-481c37-207,112-374,210-471c134-131,67-112-112,31
		c-108,87-174,124-258,145c-25,6-47,14-49,18c-2,3,7,62,20,131c14,72,20,128,15,133s-38,10-73,11c-40,1-75,9-94,20l-31,19l30,28
		c16,16,39,29,51,29c30,0,83-35,91-60c5-16,13-20,33-18c33,4,34,10,57,253c37,390,113,837,211,1248c41,170,39,183-29,172
		c-47-8-153,3-141,15c5,4,32,15,59,24c89,27,127,43,135,56c4,7-5,35-22,69c-27,51-30,62-25,121c6,64,93,559,100,566
		c2,2,51,13,108,23c228,42,589,138,685,181c34,15,79,43,100,63c22,20,52,38,67,41s39,9,55,12s-4-14-53-43c-44-27-111-72-149-101
		c-59-44-75-52-113-52c-81,0-138-44-309-236c-30-34-76-102-103-150c-26-49-71-121-99-160c-56-76-144-225-137-232
		c9-10,191,128,318,241c66,60,170,181,280,330c32,42,87,149,87,169c0,12,121,108,193,153c22,14,27,15,27,3c0-8-45-56-100-107
		c-110-102-141-152-201-328c-34-99-129-465-129-497c0-17,10-10,56,34c31,30,75,82,99,115c77,107,258,467,300,595l19,55l17-70
		c44-171,51-253,60-780c10-627,20-706,84-681c15,5,17,14,10,59c-19,146-24,262-25,582c0,343-10,555-31,685c-22,131-76,324-101,356
		c-12,16,19,39,75,58c63,21,207,46,267,46h47l1-566c0-312,3-569,6-572c5-5,228,23,266,34c13,3,15,35,12,223l-3,218l32,7
		c17,3,35,6,40,6s9-57,9-127c0-77,4-122,9-113c5,8,30,74,56,147l47,131l65,32c115,57,226,159,276,253c24,45,25,45,36,21
		c19-42,13-62-34-120c-105-128-139-237-139-444c1-226,15-524,25-509c5,8,9,22,9,32c0,11,23,75,50,143c102,253,122,369,113,659
		c-3,94-3,168,0,165s28-70,55-150c46-137,48-147,36-182c-24-70-37-198-30-302c8-125,39-265,110-496c30-98,65-227,76-286
		c34-171,32-166,41-113c14,93,31,419,32,634c1,214,0,223-26,310c-42,134-90,229-138,267c-30,24-43,45-56,87c-9,31-31,95-48,144
		c-18,48-30,87-26,87c8,0,73-106,145-241c69-127,120-187,233-276c106-83,296-198,301-183c6,16-76,145-209,334
		c-179,252-317,378-455,415c-40,11-42,13-73,94c-17,46-31,87-31,91c0,5,15-7,34-27c47-51,208-172,283-214c69-38,473-185,473-172
		c0,12-231,298-271,336c-19,17-73,56-121,86c-174,109-320,167-420,167h-45l-57,133c-95,223-225,448-368,638l-59,78l4,453
		c2,249,7,467,11,483c10,40-16,73-64,84c-48,11-165-4-203-26c-47-28-52-42-39-119c7-42,13-262,17-562l5-493l-80,71
		c-54,49-83,84-91,109c-28,84-101,157-204,202c-54,24-371,125-421,135c-19,3-34,9-34,13c0,3,9,40,20,81c44,161,78,230,186,387
		c35,51,64,100,64,108s-11,22-24,30c-27,18-39,41-30,57c3,5,13,0,21-11c20-30,52-26,97,11c37,31,283,392,416,611l65,107l5-292
		c6-337,3-327,91-289c43,19,65,22,116,18l63-5v87c0,47,0,294,0,548c-1,524-9,464,92,625c53,83,65,90,192,118c46,10,51,9,75-14
		c63-59,164-86,321-86c92,0,281-21,407-45c43-8,87-15,98-15c35,1-61,45-220,100c-82,28-201,76-263,106c-62,29-128,56-147,60
		c-45,8-131-18-183-56c-23-16-49-30-58-30s-43-7-76-16c-33-8-62-14-64-12s145,195,327,428c182,234,333,431,336,438c7,16-15,42-36,42
		C4922.5,9219.7,4885.5,9189.7,4849.5,9152.7z M4575.5,4997.7c20-51,41-102,46-113c27-65,79-209,79-221c0-18-81-56-188-87
		c-72-22-82-23-78-8c66,217,96,360,96,451c0,38,2,70,4,70S4554.5,5047.7,4575.5,4997.7z M2685.4,1409.7c-28-12-45-12-45,0
		c0,6,15,10,33,9C2700.4,1418.7,2702.4,1416.7,2685.4,1409.7z"/>
	<path d="M1710.4,9169.7c-110-11-105-6-106-117c-2-128-91-1176-105-1228c-5-22-12-48-16-57c-5-17,7-18,157-18h163l-8,38
		c-11,51-10,70,35,572c45,507,68,743,76,781c5,25,3,26-42,33C1813.4,9180.7,1806.4,9179.7,1710.4,9169.7z"/>
	<path d="M5753.5,9038.7c-36-10-44-30-29-74c15-47,9-1031-8-1110c-8-37-10-69-4-78c10-19,89-36,183-39l70-3l-3,30c-2,17-6,224-8,460
		c-4,390,2,597,22,677c5,22-1,34-35,71C5876.5,9042.7,5827.5,9059.7,5753.5,9038.7z"/>
	<path d="M6198.5,8993.7c-15-8-30-25-34-38c-8-34,326-1146,348-1160c13-8,22-5,38,9c11,10,40,21,63,24c53,7,59,32,23,93
		c-34,59-109,244-140,348c-14,47-55,199-91,339c-70,271-86,317-129,369C6245.5,9013.7,6237.5,9015.7,6198.5,8993.7z"/>
	<path d="M8263.5,8606.7c-208-259-303-419-369-619c-24-72-27-100-28-210c-1-69-4-129-7-132c-10-11-38,94-54,204
		c-22,146-37,193-92,286c-70,115-233,320-246,308c-8-8,29-167,72-309c73-242,135-361,237-454c30-27,58-61,64-75c8-21,5-28-17-46
		c-19-14-41-61-79-162c-92-242-208-467-377-728c-72-110-167-250-187-273c-4-5-33,56-64,135c-32,79-63,149-70,156c-19,19-84,5-114-25
		c-21-21-24-31-19-66c5-39,91-258,131-335l17-32l-143-188c-361-476-421-556-512-687c-54-77-104-146-111-153c-10-11-16-1-34,47
		c-46,125-126,295-196,416l-73,124l-5,288c-6,326,2,301-97,302c-31,1-82,8-114,16c-33,9-60,14-62,12c-2-1,3-21,11-42
		c8-22,14-58,14-80v-40l-93,99l-93,100l15,55c19,74,11,241-17,335c-59,198-281,686-313,686c-11,0-10-227,2-335
		c25-214,53-299,152-456c75-120,132-229,120-229c-5,0-31,28-60,63c-28,34-73,84-101,112c-43,41-51,55-51,86c0,66-55,155-164,265
		c-92,92-112,106-221,161c-230,117-661,300-674,288c-3-4,2-11,12-16c52-30,183-147,312-282c180-187,266-264,370-332
		c115-76,220-116,334-127c16-2,57-40,129-121c58-65,103-119,101-121s-74,34-159,80c-252,137-334,161-590,174c-96,5-190,14-209,20
		c-19,5-36,8-38,6c-5-5,374-220,482-274c149-75,268-89,423-52c108,26,117,25,141-9l20-28l-62-5c-113-10-246-75-390-191l-35-28
		l-124,11c-68,7-138,10-156,8c-29-3-23-8,77-58c60-30,108-60,106-66s-27-44-56-83c-28-39-49-74-46-77s21-1,39,5c18,5,62,15,97,21
		c36,6,85,22,111,35l46,23l98-34c118-41,259-70,382-80l91-6l6-174c5-113,3-191-4-224c-6-28-8-54-5-58c4-3,64-8,133-10l126-5l-7,174
		l-6,174l20-25c34-42,193-369,230-472c33-91,37-98,62-98c19,0,33,8,45,28c71,110,717,984,732,990c10,3,93-175,143-307
		c43-112,74-223,84-301c9-68,25-79,74-51c29,16,48,20,73,16c62-12,64,9,13,133l-44,111l14,83c31,179,38,194,119,273
		c61,60,81,88,123,176c28,57,73,171,102,254c28,82,67,181,86,219s33,71,31,73c-15,14-201-198-350-400c-76-102-111-229-88-323
		c10-43,9-62-14-154c-14-58-25-117-25-132c0-16-3-28-8-28c-4,0-55,119-113,263l-106,264l65,94c123,176,274,424,332,544
		c56,116,230,528,230,544c0,4,10,16,22,27c17,15,20,16,16,3c-12-31,29-95,98-154c83-70,313-224,404-270c73-37,171-68,197-63
		c22,4-153,215-269,323c-61,58-76,76-58,72c51-12,428-29,510-23c93,7,215,36,215,51c0,22-444,144-603,165c-102,14-149,8-278-36
		c-111-37-136-41-153-20c-16,19,9,29,79,32c78,4,181,44,365,142c236,126,310,176,487,334l76,69l6-28c3-15,17-104,31-198
		c14-93,44-278,66-410c24-141,38-253,34-272c-6-32-6-33,27-26c18,3,78,18,133,32c110,29,107,26,80,101c-18,48-49,233-116,680
		c-22,151-46,307-54,345c-7,39-10,94-8,123c7,63,12,62-148,27c-120-27-146-39-117-56c21-11,34-60,43-149l6-65l-133-63
		c-73-34-178-77-233-96c-55-18-120-43-145-56c-86-43-357-229-382-262c-34-45-58-93-58-116c0-18-76-79-86-69s18,60,51,88
		c58,51,112,146,176,307c95,242,228,647,216,658C8315.5,8667.7,8291.5,8641.7,8263.5,8606.7z M7931.5,7551.7c-5-1-21,2-37,8
		c-21,9-25,13-14,20c8,5,22,2,36-8C7928.5,7561.7,7935.5,7553.7,7931.5,7551.7z M5669.5,6278.7l71-82v-68c0-38-3-69-8-69
		c-4,0-23,5-42,10c-19,6-89,19-155,30s-132,23-147,26l-26,5l51,57c75,83,167,172,177,172C5595.5,6359.7,5631.5,6322.7,5669.5,6278.7
		z"/>
	<path d="M7235.5,8327.7c-4-13-130-906-182-1298c-14-107-29-199-33-203c-8-9-123,239-168,363c-46,125-67,199-107,363
		c-37,156-50,190-83,220c-18,17-24,17-57,5c-45-16-75-51-75-88c0-15,45-150,101-301s116-316,135-368l34-94l-44,41
		c-80,74-173,111-416,166c-63,15-142,38-175,51l-60,24l52-48c53-49,263-186,363-236c71-36,176-45,234-21c22,9,43,13,47,9
		c5-5,26-56,47-113c42-114,53-124,99-92c15,11,47,23,71,26c39,6,43,4,52-19c7-17,17-25,34-25c30,0,37,17,25,66c-14,62-10,176,11,362
		c40,347,103,718,171,1001c16,68,29,134,29,146C7340.5,8308.7,7248.5,8362.7,7235.5,8327.7z"/>
	<path d="M2245.4,8085.7c-16-7-40-24-53-38l-22-24l60-625c33-343,63-639,66-657c7-45,26-49,89-18c30,14,63,26,74,26
		c19,0,51,24,51,39c0,5-11,20-24,34c-27,29-27,30-55,202c-48,287-77,575-87,865c-4,102-11,191-17,198
		C2315.4,8102.7,2283.4,8102.7,2245.4,8085.7z"/>
	<path d="M12014.5,7712.7c3-82,9-296,12-478c6-291,4-337-10-387c-20-65-13-89,32-112c44-23,148-39,213-33c103,9,142,54,115,131
		c-11,31-17,142-26,461c-13,510-14,523-43,530c-26,5-267,35-286,35C12010.5,7859.7,12009.5,7831.7,12014.5,7712.7z"/>
	<path d="M1497.4,7673.7c-3-4,1-17,9-29c14-21,12-56-15-357c-17-183-38-432-46-553c-16-221-27-325-40-357c-7-17,3-18,126-18
		c74,0,139,4,144,8c6,4,10,68,11,152c1,80,15,292,32,472c18,180,35,378,38,440c4,62,15,140,25,172c10,33,16,63,13,68
		C1788.4,7680.7,1507.4,7682.7,1497.4,7673.7z"/>
	<path d="M5714.5,7612.7c10-40,24-1024,16-1078c-6-38-4-48,11-55c26-14,219-34,230-23c4,4,4,186-2,408c-11,427-9,709,4,737
		c11,22-3,25-152,33l-114,6L5714.5,7612.7z"/>
	<path d="M9275.5,7213.7c-38-14-148-45-209-59c-26-6-27-7-12-24c19-21,24-46,76-405c23-153,39-285,35-293c-3-9-1-21,4-27
		c8-9,61-320,61-357c0-15,137-7,195,13c38,12,40,15,43,60c2,26-27,255-64,510c-36,255-67,493-68,530c0,38-5,68-11,67
		C9320.5,7228.7,9297.5,7221.7,9275.5,7213.7z"/>
	<path d="M8810.5,7112.7c0-72,85-394,126-478c32-64,98-131,143-146c19-6,45-23,57-38c13-14,24-21,24-15s-7,17-15,24s-15,29-15,49
		c0,99-50,212-168,384c-42,62-94,144-114,182C8814.5,7138.7,8811.5,7141.7,8810.5,7112.7z"/>
	<path d="M841.4,6619.7c-37-9-54-27-45-50c25-60,24-990-1-1129c-12-67-12-74,5-91c18-18,102-33,200-34c44-1,45-1,41,29
		c-2,17-5,229-8,473c-4,398,3,617,21,663c15,36-86,134-149,143C889.4,6626.7,860.4,6624.7,841.4,6619.7z"/>
	<path d="M12043.5,6607.7c-4-7-10-166-13-353l-5-340l-47,91c-26,50-54,99-63,107c-25,25-45,10-45-34c0-30,19-76,75-184l75-145v-201
		c0-161-3-206-16-230c-8-17-14-48-12-72l3-42l41,3c32,3,60-6,128-39c70-33,93-40,122-36c43,7,64,23,64,48c0,32,16,21,53-36
		c58-87,291-394,456-599l151-190l-63-65c-35-36-84-93-109-127c-35-45-62-68-102-88c-63-31-115-86-152-163c-31-63-122-422-129-512
		c-3-36-8-78-10-93c-3-16,0-28,5-28c6,0,10,6,10,13c0,25,62,142,141,263c153,236,197,338,204,473c4,69,8,78,47,129
		c58,76,159,183,169,180c4-2,74-86,155-188c80-102,148-187,150-189s4,27,4,65v69l-112,140c-61,77-183,229-270,337
		c-162,201-439,561-435,564c1,1,49-9,107-23c230-53,474-40,608,33c40,22,71,32,83,29c10-4,19-2,19,3c0,13-118,51-178,59
		c-57,6-300-10-487-34c-201-26-181-31-248,67l-59,85l6,616l7,617l-83-5c-69-4-92-2-136,16
		C12092.5,6622.7,12055.5,6625.7,12043.5,6607.7z"/>
	<path d="M26.4,6277.7c-9-12-16-32-16-43c0-18,108-377,305-1012c34-112,58-203,53-203c-16,0-190,89-250,128c-51,33-58,42-64,78
		c-4,30-1,51,12,75s19,63,22,134c6,156-37,477-74,545c-11,21-13-25-14-313c0-241,3-345,12-360c14-27,28-97,19-97c-4,0-12,5-19,12
		c-19,19-14-3,5-24c16-18,16-18,0-12c-9,3-17,2-17-4s19-17,43-25c23-8,82-37,130-65c48-27,117-62,152-77c54-23,65-32,70-57
		c8-36,22-42,77-31c54,11,60,35,22,94c-92,146-175,392-299,884c-53,208-99,383-101,387C84.4,6307.7,41.4,6298.7,26.4,6277.7z"/>
	<path d="M1478.4,6292.7l-127-4l14-32c11-27,11-53,0-157c-40-382-86-943-79-950c16-15,147-32,202-25c28,4,52,8,52,9s4,27,10,57
		c10,54,27,221,75,724c24,251,35,326,51,368c5,14,0,17-32,15C1622.4,6296.7,1548.4,6293.7,1478.4,6292.7z"/>
	<path d="M13282.5,5987.7c-32-218-41-496-18-553c5-11-30,37-78,107c-138,202-280,324-514,442c-30,15-58,26-63,24c-6-2,34-51,87-108
		c114-123,162-194,200-293c36-94,55-124,153-235c90-101,138-132,202-132c25,0,50-7,61-17c16-14,18-15,18,0c0,9-4,19-10,22
		c-5,3-10,19-10,34c0,16-7,48-15,72l-15,44l24-30l25-30l1,337c0,323-5,388-30,388C13296.5,6059.7,13288.5,6026.7,13282.5,5987.7z"/>
	<path d="M7430.5,5493.7c-25-7-57-16-72-19c-21-4-28-11-28-28c0-13,4-27,9-32c12-13,231-534,231-550c0-2-26,22-57,53
		c-32,32-112,96-178,143c-66,48-144,108-173,134l-54,48l15-35c29-68,200-319,270-395c51-55,127-93,188-93h47l32-91
		c31-86,33-95,27-187c-15-239-85-429-151-405c-45,17-141,7-239-25c-114-37-329-127-439-184c-77-40-206-147-178-148
		c24,0,257,39,360,61c230,49,300,80,408,183c42,40,88,79,102,86c25,13,25,13-5-26c-79-105-136-161-178-174c-115-34-335-180-474-313
		c-93-90-213-225-213-240c0-11,112,42,215,103c55,32,125,68,155,81c73,30,88,40,210,136c118,93,150,133,157,196c4,35,17,56,70,118
		c35,40,79,95,95,121c17,27,33,46,35,45c9-10-25-77-60-117c-21-25-55-76-73-113c-57-112-246-699-230-714c5-6,158,203,205,279
		c125,207,184,396,160,521c-7,41-7,68,1,99c7,23,16,62,20,87c5,26,18,80,29,121c12,41,24,119,28,173c3,54,9,94,13,90s20-46,36-92
		s35-86,42-88c7-3,33,5,57,18c44,23,46,24,92,7c48-17,73-12,73,17c0,7-28,61-62,121c-142,250-290,591-393,902
		C7504.5,5523.7,7509.5,5517.7,7430.5,5493.7z"/>
	<path d="M5935.5,5319.7c-22-5-75-6-117-3c-43,3-78,3-78,0s5-18,11-34c12-32,21-108,91-783c28-272,51-547,52-610l1-115l47-23l46-23
		l-14-44c-14-40-18-43-57-49l-42-7l-1-127l-2-127l-97-280c-105-305-235-709-235-731c0-18,79-19,84-2c40,133,198,609,201,606
		c2-2,0-33-5-68c-16-120-64-630-59-634c5-6,249-23,249-18c0,10,94,930,115,1126c27,252,30,237-38,258c-27,8-36,16-33,27
		c3,9,8,28,11,43c5,20,17,30,48,40c59,18,74,52,53,116c-9,26-17,63-18,82c-1,36,48,237,63,256c5,6,61,28,124,49l115,38l72-24
		c61-20,91-24,183-23c61,1,144,9,185,18c41,8,129,26,195,40s153,26,193,28c39,1,72,3,72,5c0,6-51,23-110,39c-101,26-459,66-535,60
		c-86-8-163-42-216-96c-22-22-46-40-54-40c-11,0-157-46-210-66c-11-5-11,5,1,58c54,228,110,557,121,716c5,70,3,85-12,102
		c-38,42-49,21-69-146c-28-236-129-754-144-740c-8,9-90,784-109,1044C6007.5,5336.7,6010.5,5334.7,5935.5,5319.7z"/>
	<path d="M794.4,5192.7c4-16,9-197,12-403l5-375l-39,70c-21,39-78,143-126,232c-106,198-115,210-144,194c-12-6-22-16-22-22
		c0-5,38-78,83-162c46-84,121-223,166-310l82-157l-2-98l-2-97l34-12c19-7,43-12,55-12c13-1,26-13,37-36c9-20,17-38,17-40
		c0-10-48-5-99,11c-29,8-55,14-57,12s3-24,10-48c9-31,16-156,22-390c11-432,11-444,1-507l-7-51l57-9c54-7,191-8,198-1
		c2,2,0,161-3,355c-4,193-4,349-1,347c4-2,25-48,48-103l41-99l-26-339c-14-186-29-345-32-353c-4-8-9,14-12,50c-5,62-6,65-30,62
		c-14-2-73-3-132-3c-110,0-117-3-98-39c10-19,27-164,85-735c20-192,40-395,46-450s11-157,12-227l2-126l-19,51c-10,29-88,237-174,462
		c-327,865-445,1261-522,1762c-21,136-23,143-49,143c-36,0-43-46-26-160c46-315,144-714,262-1072c27-82,44-148,39-147
		c-6,0-32,8-58,17c-36,13-56,30-91,78c-56,74-140,141-252,200l-85,46v-135v-134l71-33c82-38,180-50,253-31c38,9,54,8,110-9
		c42-13,70-28,77-41c12-23,12-22-18-38c-17-9-34-9-68,0c-74,19-195,6-315-33l-105-34l-3-72c-3-64-1-72,15-72c82,2,231,23,277,39
		c65,23,126,68,155,115c17,27,68,63,76,54c2-2,16-41,33-88c16-47,100-269,185-495c85-225,170-452,188-503l32-93l-11-102
		c-7-56-14-113-18-127l-5-26l148,2l148,1l1,54c2,85,32,483,54,709c11,113,27,290,35,393c9,108,22,205,31,226c18,45,7,83-28,102
		c-12,7-59,15-103,18l-80,6l-3,57l-3,57l56,17c46,13,65,14,100,5c24-6,48-11,53-11s15,60,21,133c25,279,23,276,54,77
		c66-410,235-1162,270-1197c17-17,57-9,57,10c0,7-27,120-60,252c-90,358-190,866-225,1145c-10,76-21,100-45,100c-18,0-20,5-15,38
		c3,20,16,179,30,352s27,329,30,346c4,22,0,38-12,52c-30,34-63,34-134,1c-60-29-95-36-129-28c-11,3-16-8-20-45l-5-50l-49,112
		c-34,80-46,120-42,137c5,20,2,27-18,34c-18,8-46,53-46,77c0,1,12,4,28,6c23,3,27,7,26,33c-1,17-4,266-9,555c-5,368-4,533,4,552
		c13,34,12,34-148,43l-113,6L794.4,5192.7z"/>
	<path d="M1509.4,5085.7c-46-43-135-76-204-76c-30,0-56-4-59-9c-4-5,0-34,8-65c13-50,13-75-4-245c-11-105-26-295-35-423
		c-15-212-18-237-41-281c-23-46-24-50-9-73c18-28,58-32,112-9c46,20,113,19,141-1c13-9,29-14,36-11c14,5,24,138,51,652
		c15,292,29,452,45,520c5,22,6,43,2,47S1529.4,5103.7,1509.4,5085.7z"/>
	<path d="M9605.5,4771.7c-16-11-36-27-44-36c-22-26-70-48-91-41c-17,6-20,1-20-30c0-21,9-54,19-74c15-26,42-179,100-556
		c45-286,83-534,86-551c10-56,27-60,92-23c46,26,69,33,109,33l52-1l-5,41c-3,23-45,295-94,606c-49,310-89,575-89,587
		c0,29-33,63-62,63C9645.5,4789.7,9622.5,4781.7,9605.5,4771.7z"/>
	<path d="M7887.5,4279.7c-108-9-127-21-102-69c45-87,207-569,307-915c58-199,62-217,62-319c1-122,6-130,73-102c21,9,66,19,101,22
		c43,4,66,11,71,22c12,21-180,694-350,1231c-35,110-51,143-69,138C7977.5,4287.7,7935.5,4283.7,7887.5,4279.7z"/>
	<path d="M0.4,4022.7v-69l61-79c34-44,67-88,74-98c12-16,17-17,54-6c23,7,41,14,41,16c0,4-171,233-207,276l-23,29V4022.7z"/>
	<path d="M11993.5,3709.7c-35-14-46-44-32-93c15-53,7-281-26-772c-13-198-27-414-31-480c-4-67-17-160-30-210c-32-129-21-141,145-169
		c52-9,114-16,138-16c49,0,49-3,33,119c-6,47-6,116,0,190c5,64,16,235,25,381c31,541,46,736,60,787c26,91,21,114-37,179
		c-29,31-71,65-93,75C12103.5,3720.7,12030.5,3724.7,11993.5,3709.7z"/>
	<path d="M4025.4,3643.7c-64-8-148-26-170-36c-20-9-21-14-13-57c4-26,7-276,6-557l-3-509l-73,295c-41,162-78,300-84,307
		c-15,19-35,16-59-8c-16-16-20-30-17-62c3-23,53-199,113-392c60-192,108-365,108-384l-2-34l87,8c48,4,119,11,157,14c68,6,70,7,66,31
		c-3,14-6,331-7,705l-3,680l-38,1C4072.4,3646.7,4042.4,3645.7,4025.4,3643.7z"/>
	<path d="M6931.5,3094.7c-18-38-55-135-82-215s-70-191-95-247c-61-136-118-383-117-503c0-61,6-102,21-143l22-59l-90-136
		c-49-76-90-134-90-131c0,4,7,26,15,50c39,110,102,495,140,850c27,251,23,253-69,44c-201-461-268-808-197-1024l21-63l-51-90
		c-59-100-72-115-57-61c14,50,13,231-1,313c-7,36-36,155-66,265s-61,242-69,293c-7,51-16,95-19,98c-23,24-53-572-36-738
		c14-138,64-243,138-290l28-18l-55-106c-63-124-140-301-188-433c-19-52-36-97-38-99s-2,123,1,277l6,281l-59-6c-43-5-69-2-98,10
		c-21,9-51,16-66,16h-28l-4-132c-2-73-5-284-6-468c-2-277-5-342-19-377c-8-23-13-53-9-66c4-19,11-23,34-19c19,2,50-7,90-27
		c71-36,104-39,132-11c19,19,20,33,20,229v209l46,134c90,258,307,708,326,673c8-14,13-59,37-350c11-132,47-287,84-368
		c13-29,47-81,76-117s60-78,69-95l16-30l7,30c11,48,10,303-1,395c-30,247-136,491-241,553l-39,23l56,90c31,49,57,90,58,92
		c2,1,32-13,68-32c102-53,166-60,523-53c274,6,525,24,541,40c6,6-218,94-331,130c-298,94-617,85-738-21c-33-29-26-6,21,66
		c45,69,49,72,87,72c144,1,380,22,450,40c91,23,233,88,336,155c83,54,163,95,183,95c8,0,18,5,22,12c11,17-549,3-639-16
		c-97-21-198-78-279-158c-37-37-68-65-68-63c0,4,100,153,174,258c40,57,40,57,90,57c89,0,256,98,360,211c89,96,506,717,506,754
		c0,4-34-25-76-64s-132-113-201-163c-69-51-162-120-207-153c-104-77-234-202-297-285c-49-64-139-233-139-260c0-15-111-182-117-176
		c-2,1,8,27,21,57c45,98,134,430,155,576c22,148,46,440,38,470C6965.5,3158.7,6953.5,3141.7,6931.5,3094.7z"/>
	<path d="M12800.5,2919.7c29-55,319-325,475-444l50-38l3,128c2,95-1,129-10,136c-7,4-83,35-168,69c-159,63-246,103-312,145
		C12792.5,2944.7,12786.5,2945.7,12800.5,2919.7z"/>
	<path d="M4828.5,2501.7c-287-171-453-339-488-496c-10-44-29-75-124-196c-23-30-56-75-72-99l-29-45l-3,175c-2,108,1,199,9,242
		c7,37,9,70,6,73c-9,10-279-14-290-25c-7-7-5-16,6-29c15-16,16-78,17-632c1-338-2-623-5-632c-6-15-2-18,26-18c53,1,248,25,254,32
		c4,3,1,23-6,45c-8,25-13,152-16,383l-4,345l38,62c54,88,130,173,170,190c32,13,36,12,64-11c36-31,76-42,194-56c114-13,409-13,500,0
		c74,11,161,36,170,49c6,10-298,86-430,107c-143,23-228,15-344-30c-132-52-146-40-24,22c102,52,103,52,196,52c109,0,315,35,429,74
		c85,28,241,96,297,130l36,21l-47,3c-26,2-101-4-167-12c-66-9-154-16-196-16c-57,0-112-9-209-35c-145-40-201-70-221-119
		c-11-26-27-39-73-59c-33-14-90-44-126-66s-66-36-66-32c0,15,50,54,101,77c33,15,85,57,142,112c137,134,433,482,409,482
		C4948.5,2569.7,4892.5,2538.7,4828.5,2501.7z"/>
	<path d="M11320.5,2416.7c0-4,7-18,15-30c23-36,41-123,94-457c28-173,53-331,57-350c6-40,5-39-58,45c-30,40-47,75-52,103
		c-10,68-49,133-113,193c-69,63-356,224-492,275c-88,33-114,36-70,7c13-8,119-111,234-228c196-198,216-215,294-254
		c46-22,94-41,108-41c44,0,156-148,174-230c6-28,9-53,7-56c-3-2-43,14-90,36s-90,40-95,40s-25,20-46,44c-22,26-60,56-94,73
		c-58,28-59,28-233,25c-163-2-310-15-347-29c-9-4,26-15,77-25s144-39,206-64c127-50,227-65,329-51c100,15,116,12,212-32l92-43l7-54
		c3-30,4-84,2-120l-4-66l123,4l123,3v-46c0-34-5-49-16-53c-9-3-60-6-114-6s-102-4-105-10c-3-5,1-23,9-39c14-27,45-208,129-761
		l32-215l166-3l166-2l-12,69c-7,44-8,75-2,86c5,9,6,26,3,38c-3,12-1,80,4,152c6,71,31,416,56,765c37,527,48,643,64,680
		c10,25,16,48,12,52c-12,12-342,66-348,57c-2-4,0-26,5-48c8-37-7-294-15-266c-2,6-26,150-53,321c-28,171-57,342-65,380
		c-9,38-14,85-13,104l2,35h-182C11402.5,2424.7,11320.5,2420.7,11320.5,2416.7z"/>
	<path d="M5551.5,2325.7c-9-11-9-45-1-140c27-315-61-739-219-1054c-21-42-55-120-76-172s-55-130-77-174c-27-53-38-86-34-102
		c3-12,2-26-4-29c-6-4-10-55-10-122c0-64-2-114-5-111s-16,43-30,89c-22,76-23,90-13,146c14,79-7,167-62,252c-76,117-391,464-407,447
		c-2-1,17-41,41-87c25-46,70-149,101-228c30-79,74-179,96-221c43-83,120-177,173-209c29-18,37-32,62-118c25-84,29-113,27-198
		c-2-55-9-144-16-197l-13-98h47h47l11,72c23,148,34,360,25,470c-9,104-9,107,12,117c17,7,25,27,39,88c9,43,39,127,66,187
		c28,60,83,189,124,287c147,352,188,523,188,779C5643.5,2252.7,5604.5,2389.7,5551.5,2325.7z"/>
	<path d="M12350.5,2264.7c0-29,154-433,239-628c66-154,98-205,193-310c74-83,141-132,201-148c31-8,58-30,116-92c42-45,88-94,104-111
		c15-16,27-31,27-33c0-9-69,37-193,131c-156,117-216,147-368,185c-111,28-324,58-350,49c-18-6,86-79,267-186
		c193-115,293-165,406-203c82-28,102-30,189-27c92,3,99,1,123-21c37-34,32-7-5,32c-33,35-33,33-4,167c21,93,15,192-16,292
		c-24,74-276,594-284,586c-3-3-1-18,5-34c5-16,14-110,19-209c14-258,31-317,185-650l46-100l-109,113c-107,111-108,113-114,170
		c-12,114-85,280-181,416c-25,34-119,148-209,254c-90,105-188,226-217,269C12359.5,2266.7,12350.5,2277.7,12350.5,2264.7z"/>
	<path d="M13257.5,2179.7c-62-27-184-67-262-86l-30-7l30-7c17-4,99-8,183-9l152-1v70c0,39-1,70-2,70
		C13326.5,2208.7,13294.5,2195.7,13257.5,2179.7z"/>
	<path d="M5766.5,1812.7c-6-266-11-369-21-402c-10-29-11-49-5-61c15-29,88-52,167-53c116-2,109-34,105,439l-3,400l-107,17
		c-59,10-112,17-118,17C5776.5,2169.7,5770.5,2067.7,5766.5,1812.7z"/>
	<path d="M171.4,1612.7c-1-18,4-88,10-157l11-124l-44-53c-96-119-148-246-148-363c0-69,1-71,42-113c43-44,42-53-2-28
		c-14,8-28,14-32,15c-5,0-8-48-8-106v-107l51,7c28,4,75,16,105,27l54,21l83-77c45-42,125-111,177-153c99-81,364-262,382-262
		c7,0,8-24,4-70l-7-70h155c153,0,156,0,160,22c2,13,16,180,30,373c20,272,23,351,13,357c-22,13-118,21-206,15c-117-7-120-8-110-60
		c11-58,11-157-1-252c-5-44-14-127-19-183c-5-57-12-106-14-109c-10-9-233,140-359,239l-87,69l20,52c50,130,29,374-53,625l-20,64
		l25,76c30,91,41,171,28,192c-8,12-20,8-70-28l-60-42l-23,52c-12,29-37,82-55,118C174.4,1639.7,171.4,1642.7,171.4,1612.7z
		 M234.4,1017.7c3-18,10-67,17-108c19-132,50-262,75-318c13-30,22-57,20-59s-74,64-160,148c-112,108-156,158-156,174s28,49,93,109
		c50,47,95,86,99,86S231.4,1034.7,234.4,1017.7z"/>
	<path d="M12678.5,841.7c-93-8-168-18-168-21c0-8,335-177,389-196c58-20,252-45,352-45h79v104c0,59-4,108-10,111s-74,19-153,36
		C13005.5,863.7,12940.5,865.7,12678.5,841.7z"/>
	<path d="M4030.4,764.7c-36-8-100-17-142-21l-77-7l16-31c14-27,15-69,10-369l-6-337h139h140l1,258c1,273,10,476,23,505
		C4144.5,783.7,4127.5,783.7,4030.4,764.7z"/>
	<path d="M2125.4,694.7c13-72,103-334,149-430c51-109,117-199,173-238c60-42,76-36,49,19c-8,16-26,87-41,158c-16,77-38,151-55,185
		c-35,70-149,218-225,291l-56,55L2125.4,694.7z"/>
	<path d="M7036.5,647.7c-9-29-23-98-32-153c-19-127-38-220-64-314c-11-41-20-99-20-128v-53h129h129l7,68c8,82-7,210-40,355
		c-29,130-75,277-86,277C7055.5,699.7,7044.5,675.7,7036.5,647.7z"/>
	<path d="M10340.5,508.7c-19-5-88-12-152-15c-65-4-118-11-118-16s7-22,15-38c8-15,29-121,47-234l32-206h164h164l-6,27
		c-3,16-13,84-21,153c-9,69-20,152-26,185s-12,80-12,105c-2,40-5,45-27,47C10386.5,517.7,10359.5,513.7,10340.5,508.7z"/>
	<path d="M10890.5,382.7c0-40,69-364,80-376c4-4,41-7,83-5l76,3l-30,45c-17,25-42,70-56,100
		C10993.5,259.7,10890.5,415.7,10890.5,382.7z"/>
	<path d="M7476.5,199.7c-97-99-176-185-176-190c0-6,43-10,108-10h108l42,74c52,91,89,188,98,255c4,28,4,51,2,51
		C7655.5,379.7,7573.5,298.7,7476.5,199.7z"/>
	<path d="M11441.5,147.7c-13-68-26-129-29-136c-3-8,9-12,42-12c43,0,46,2,46,27c0,50-24,243-30,243
		C11467.5,269.7,11453.5,214.7,11441.5,147.7z"/>
	<path d="M6210.5,163.7c0-3,28-41,61-85l61-79h84c46,0,84,2,84,4c0,5-175,109-237,140C6234.5,157.7,6210.5,167.7,6210.5,163.7z"/>
	<path d="M5726.5,43.7c-9-8-16-22-16-30c0-11,25-14,135-14c131,0,135,1,135,21c0,18-4,20-22,14c-55-18-96-17-136,4
		C5773.5,63.7,5747.5,64.7,5726.5,43.7z"/>
	<path d="M8795.5,14.7l-50-13l73-1c55-1,73,2,70,12C8882.5,29.7,8854.5,30.7,8795.5,14.7z"/>
</g>
</svg>
